<mxfile host="Electron" modified="2024-04-16T12:02:29.148Z" agent="Mozilla/5.0 (Windows NT 10.0; Win64; x64) AppleWebKit/537.36 (KHTML, like Gecko) draw.io/24.2.5 Chrome/120.0.6099.109 Electron/28.1.0 Safari/537.36" etag="xBORH29UB7ygjGtH__eI" version="24.2.5" type="device">
  <diagram name="PÃ¡gina-1" id="M7Lu23Wvv8A5Akc-cAFW">
    <mxGraphModel dx="1290" dy="621" grid="1" gridSize="10" guides="1" tooltips="1" connect="1" arrows="1" fold="1" page="1" pageScale="1" pageWidth="827" pageHeight="1169" math="0" shadow="0">
      <root>
        <mxCell id="0" />
        <mxCell id="1" parent="0" />
        <mxCell id="QTkmuYOU0vNZ0ToTAlN7-1" value="Inicio" style="ellipse;whiteSpace=wrap;html=1;" vertex="1" parent="1">
          <mxGeometry x="354" y="20" width="120" height="80" as="geometry" />
        </mxCell>
        <mxCell id="QTkmuYOU0vNZ0ToTAlN7-2" value="Escribir &quot;Ingrese un numero n&quot;" style="shape=parallelogram;perimeter=parallelogramPerimeter;whiteSpace=wrap;html=1;fixedSize=1;" vertex="1" parent="1">
          <mxGeometry x="307" y="140" width="206" height="60" as="geometry" />
        </mxCell>
        <mxCell id="QTkmuYOU0vNZ0ToTAlN7-3" value="" style="endArrow=classic;html=1;rounded=0;entryX=0.5;entryY=0;entryDx=0;entryDy=0;" edge="1" parent="1" target="QTkmuYOU0vNZ0ToTAlN7-2">
          <mxGeometry width="50" height="50" relative="1" as="geometry">
            <mxPoint x="410" y="100" as="sourcePoint" />
            <mxPoint x="460" y="50" as="targetPoint" />
          </mxGeometry>
        </mxCell>
        <mxCell id="QTkmuYOU0vNZ0ToTAlN7-4" value="" style="endArrow=classic;html=1;rounded=0;" edge="1" parent="1">
          <mxGeometry width="50" height="50" relative="1" as="geometry">
            <mxPoint x="409.5" y="200" as="sourcePoint" />
            <mxPoint x="409.5" y="260" as="targetPoint" />
          </mxGeometry>
        </mxCell>
        <mxCell id="QTkmuYOU0vNZ0ToTAlN7-5" value="Leer n" style="shape=parallelogram;perimeter=parallelogramPerimeter;whiteSpace=wrap;html=1;fixedSize=1;" vertex="1" parent="1">
          <mxGeometry x="350" y="260" width="120" height="60" as="geometry" />
        </mxCell>
        <mxCell id="QTkmuYOU0vNZ0ToTAlN7-6" value="" style="endArrow=classic;html=1;rounded=0;" edge="1" parent="1">
          <mxGeometry width="50" height="50" relative="1" as="geometry">
            <mxPoint x="409.5" y="320" as="sourcePoint" />
            <mxPoint x="410" y="370" as="targetPoint" />
          </mxGeometry>
        </mxCell>
        <mxCell id="QTkmuYOU0vNZ0ToTAlN7-7" value="N mod 2 == 0" style="rhombus;whiteSpace=wrap;html=1;" vertex="1" parent="1">
          <mxGeometry x="360" y="370" width="100" height="80" as="geometry" />
        </mxCell>
        <mxCell id="QTkmuYOU0vNZ0ToTAlN7-9" value="" style="endArrow=classic;html=1;rounded=0;" edge="1" parent="1">
          <mxGeometry width="50" height="50" relative="1" as="geometry">
            <mxPoint x="460" y="410" as="sourcePoint" />
            <mxPoint x="530" y="410" as="targetPoint" />
          </mxGeometry>
        </mxCell>
        <mxCell id="QTkmuYOU0vNZ0ToTAlN7-10" value="Si" style="text;html=1;align=center;verticalAlign=middle;whiteSpace=wrap;rounded=0;" vertex="1" parent="1">
          <mxGeometry x="430" y="380" width="60" height="30" as="geometry" />
        </mxCell>
        <mxCell id="QTkmuYOU0vNZ0ToTAlN7-11" value="" style="endArrow=classic;html=1;rounded=0;exitX=0;exitY=0.5;exitDx=0;exitDy=0;" edge="1" parent="1" source="QTkmuYOU0vNZ0ToTAlN7-7">
          <mxGeometry width="50" height="50" relative="1" as="geometry">
            <mxPoint x="250" y="424.5" as="sourcePoint" />
            <mxPoint x="300" y="410" as="targetPoint" />
          </mxGeometry>
        </mxCell>
        <mxCell id="QTkmuYOU0vNZ0ToTAlN7-12" value="No" style="text;html=1;align=center;verticalAlign=middle;whiteSpace=wrap;rounded=0;" vertex="1" parent="1">
          <mxGeometry x="330" y="380" width="60" height="30" as="geometry" />
        </mxCell>
        <mxCell id="QTkmuYOU0vNZ0ToTAlN7-14" value="Escribir &quot;n es impar&quot;" style="shape=parallelogram;perimeter=parallelogramPerimeter;whiteSpace=wrap;html=1;fixedSize=1;" vertex="1" parent="1">
          <mxGeometry x="160" y="380" width="150" height="60" as="geometry" />
        </mxCell>
        <mxCell id="QTkmuYOU0vNZ0ToTAlN7-15" value="Escribir &quot;n es par&quot;" style="shape=parallelogram;perimeter=parallelogramPerimeter;whiteSpace=wrap;html=1;fixedSize=1;" vertex="1" parent="1">
          <mxGeometry x="520" y="380" width="150" height="60" as="geometry" />
        </mxCell>
        <mxCell id="QTkmuYOU0vNZ0ToTAlN7-16" value="" style="endArrow=classic;html=1;rounded=0;" edge="1" parent="1">
          <mxGeometry width="50" height="50" relative="1" as="geometry">
            <mxPoint x="230" y="440" as="sourcePoint" />
            <mxPoint x="400" y="560" as="targetPoint" />
            <Array as="points">
              <mxPoint x="230" y="560" />
            </Array>
          </mxGeometry>
        </mxCell>
        <mxCell id="QTkmuYOU0vNZ0ToTAlN7-17" value="" style="endArrow=classic;html=1;rounded=0;" edge="1" parent="1">
          <mxGeometry width="50" height="50" relative="1" as="geometry">
            <mxPoint x="590" y="440" as="sourcePoint" />
            <mxPoint x="400" y="640.7999877929688" as="targetPoint" />
            <Array as="points">
              <mxPoint x="590" y="560" />
              <mxPoint x="400" y="560" />
            </Array>
          </mxGeometry>
        </mxCell>
        <mxCell id="QTkmuYOU0vNZ0ToTAlN7-18" value="Fin" style="ellipse;whiteSpace=wrap;html=1;" vertex="1" parent="1">
          <mxGeometry x="340" y="640" width="120" height="80" as="geometry" />
        </mxCell>
      </root>
    </mxGraphModel>
  </diagram>
</mxfile>
